  0
SECTION
  2
BLOCKS
  0
ENDSEC
  0
SECTION
  2
ENTITIES
  0
LINE
  8
0
 10
44.9
 20
-20.5
 11
65.1
 21
-20.5
  0
LINE
  8
0
 10
65.1
 20
-20.5
 11
65.1
 21
-32.9747
  0
LINE
  8
0
 10
65.1
 20
-32.9747
 11
76.5679
 21
-32.9178
  0
LINE
  8
0
 10
76.5679
 20
-32.9178
 11
79.6353
 21
-32.2658
  0
LINE
  8
0
 10
79.6353
 20
-32.2658
 11
82.5
 21
-30.9904
  0
LINE
  8
0
 10
82.5
 20
-30.9904
 11
85.037
 21
-29.1472
  0
LINE
  8
0
 10
85.037
 20
-29.1472
 11
87.1353
 21
-26.8168
  0
LINE
  8
0
 10
87.1353
 20
-26.8168
 11
88.7032
 21
-24.101
  0
LINE
  8
0
 10
88.7032
 20
-24.101
 11
89.6722
 21
-21.1187
  0
LINE
  8
0
 10
89.6722
 20
-21.1187
 11
90
 21
-18
  0
LINE
  8
0
 10
90
 20
-18
 11
90
 21
18
  0
LINE
  8
0
 10
90
 20
18
 11
89.6722
 21
21.1187
  0
LINE
  8
0
 10
89.6722
 20
21.1187
 11
88.7032
 21
24.101
  0
LINE
  8
0
 10
88.7032
 20
24.101
 11
87.1353
 21
26.8168
  0
LINE
  8
0
 10
87.1353
 20
26.8168
 11
85.037
 21
29.1472
  0
LINE
  8
0
 10
85.037
 20
29.1472
 11
82.5
 21
30.9904
  0
LINE
  8
0
 10
82.5
 20
30.9904
 11
79.6353
 21
32.2658
  0
LINE
  8
0
 10
79.6353
 20
32.2658
 11
76.5679
 21
32.9178
  0
LINE
  8
0
 10
76.5679
 20
32.9178
 11
65.1
 21
32.9747
  0
LINE
  8
0
 10
65.1
 20
32.9747
 11
65.1
 21
20.5
  0
LINE
  8
0
 10
65.1
 20
20.5
 11
44.9
 21
20.5
  0
LINE
  8
0
 10
44.9
 20
20.5
 11
44.9
 21
32.9988
  0
LINE
  8
0
 10
44.9
 20
32.9988
 11
29.5506
 21
32.8192
  0
LINE
  8
0
 10
29.5506
 20
32.8192
 11
22.8024
 21
31.3849
  0
LINE
  8
0
 10
22.8024
 20
31.3849
 11
16.5
 21
28.5788
  0
LINE
  8
0
 10
16.5
 20
28.5788
 11
10.9187
 21
24.5238
  0
LINE
  8
0
 10
10.9187
 20
24.5238
 11
6.30243
 21
19.3969
  0
LINE
  8
0
 10
6.30243
 20
19.3969
 11
2.853
 21
13.4223
  0
LINE
  8
0
 10
2.853
 20
13.4223
 11
0.721115
 21
6.86108
  0
LINE
  8
0
 10
0.721115
 20
6.86108
 11
0
 21
0
  0
LINE
  8
0
 10
0
 20
0
 11
0.721115
 21
-6.86108
  0
LINE
  8
0
 10
0.721115
 20
-6.86108
 11
2.853
 21
-13.4223
  0
LINE
  8
0
 10
2.853
 20
-13.4223
 11
6.30243
 21
-19.3969
  0
LINE
  8
0
 10
6.30243
 20
-19.3969
 11
10.9187
 21
-24.5238
  0
LINE
  8
0
 10
10.9187
 20
-24.5238
 11
16.5
 21
-28.5788
  0
LINE
  8
0
 10
16.5
 20
-28.5788
 11
22.8024
 21
-31.3849
  0
LINE
  8
0
 10
22.8024
 20
-31.3849
 11
29.5506
 21
-32.8192
  0
LINE
  8
0
 10
29.5506
 20
-32.8192
 11
44.9
 21
-32.9988
  0
LINE
  8
0
 10
44.9
 20
-32.9988
 11
44.9
 21
-20.5
  0
LINE
  8
0
 10
40.3955
 20
10.3055
 11
40.191
 21
10.3489
  0
LINE
  8
0
 10
40.191
 20
10.3489
 11
40
 21
10.434
  0
LINE
  8
0
 10
40
 20
10.434
 11
39.8309
 21
10.5569
  0
LINE
  8
0
 10
39.8309
 20
10.5569
 11
39.691
 21
10.7122
  0
LINE
  8
0
 10
39.691
 20
10.7122
 11
39.5865
 21
10.8932
  0
LINE
  8
0
 10
39.5865
 20
10.8932
 11
39.5219
 21
11.0921
  0
LINE
  8
0
 10
39.5219
 20
11.0921
 11
39.5
 21
11.3
  0
LINE
  8
0
 10
39.5
 20
11.3
 11
39.5219
 21
11.5079
  0
LINE
  8
0
 10
39.5219
 20
11.5079
 11
39.5865
 21
11.7067
  0
LINE
  8
0
 10
39.5865
 20
11.7067
 11
39.691
 21
11.8878
  0
LINE
  8
0
 10
39.691
 20
11.8878
 11
39.8309
 21
12.0431
  0
LINE
  8
0
 10
39.8309
 20
12.0431
 11
40
 21
12.166
  0
LINE
  8
0
 10
40
 20
12.166
 11
40.191
 21
12.2511
  0
LINE
  8
0
 10
40.191
 20
12.2511
 11
40.3955
 21
12.2945
  0
LINE
  8
0
 10
40.3955
 20
12.2945
 11
40.6045
 21
12.2945
  0
LINE
  8
0
 10
40.6045
 20
12.2945
 11
40.809
 21
12.2511
  0
LINE
  8
0
 10
40.809
 20
12.2511
 11
41
 21
12.166
  0
LINE
  8
0
 10
41
 20
12.166
 11
41.1691
 21
12.0431
  0
LINE
  8
0
 10
41.1691
 20
12.0431
 11
41.309
 21
11.8878
  0
LINE
  8
0
 10
41.309
 20
11.8878
 11
41.4135
 21
11.7067
  0
LINE
  8
0
 10
41.4135
 20
11.7067
 11
41.4781
 21
11.5079
  0
LINE
  8
0
 10
41.4781
 20
11.5079
 11
41.5
 21
11.3
  0
LINE
  8
0
 10
41.5
 20
11.3
 11
41.4781
 21
11.0921
  0
LINE
  8
0
 10
41.4781
 20
11.0921
 11
41.4135
 21
10.8932
  0
LINE
  8
0
 10
41.4135
 20
10.8932
 11
41.309
 21
10.7122
  0
LINE
  8
0
 10
41.309
 20
10.7122
 11
41.1691
 21
10.5569
  0
LINE
  8
0
 10
41.1691
 20
10.5569
 11
41
 21
10.434
  0
LINE
  8
0
 10
41
 20
10.434
 11
40.809
 21
10.3489
  0
LINE
  8
0
 10
40.809
 20
10.3489
 11
40.6045
 21
10.3055
  0
LINE
  8
0
 10
40.6045
 20
10.3055
 11
40.3955
 21
10.3055
  0
LINE
  8
0
 10
40.3955
 20
-12.2945
 11
40.191
 21
-12.2511
  0
LINE
  8
0
 10
40.191
 20
-12.2511
 11
40
 21
-12.166
  0
LINE
  8
0
 10
40
 20
-12.166
 11
39.8309
 21
-12.0431
  0
LINE
  8
0
 10
39.8309
 20
-12.0431
 11
39.691
 21
-11.8878
  0
LINE
  8
0
 10
39.691
 20
-11.8878
 11
39.5865
 21
-11.7067
  0
LINE
  8
0
 10
39.5865
 20
-11.7067
 11
39.5219
 21
-11.5079
  0
LINE
  8
0
 10
39.5219
 20
-11.5079
 11
39.5
 21
-11.3
  0
LINE
  8
0
 10
39.5
 20
-11.3
 11
39.5219
 21
-11.0921
  0
LINE
  8
0
 10
39.5219
 20
-11.0921
 11
39.5865
 21
-10.8932
  0
LINE
  8
0
 10
39.5865
 20
-10.8932
 11
39.691
 21
-10.7122
  0
LINE
  8
0
 10
39.691
 20
-10.7122
 11
39.8309
 21
-10.5569
  0
LINE
  8
0
 10
39.8309
 20
-10.5569
 11
40
 21
-10.434
  0
LINE
  8
0
 10
40
 20
-10.434
 11
40.191
 21
-10.3489
  0
LINE
  8
0
 10
40.191
 20
-10.3489
 11
40.3955
 21
-10.3055
  0
LINE
  8
0
 10
40.3955
 20
-10.3055
 11
40.6045
 21
-10.3055
  0
LINE
  8
0
 10
40.6045
 20
-10.3055
 11
40.809
 21
-10.3489
  0
LINE
  8
0
 10
40.809
 20
-10.3489
 11
41
 21
-10.434
  0
LINE
  8
0
 10
41
 20
-10.434
 11
41.1691
 21
-10.5569
  0
LINE
  8
0
 10
41.1691
 20
-10.5569
 11
41.309
 21
-10.7122
  0
LINE
  8
0
 10
41.309
 20
-10.7122
 11
41.4135
 21
-10.8932
  0
LINE
  8
0
 10
41.4135
 20
-10.8932
 11
41.4781
 21
-11.0921
  0
LINE
  8
0
 10
41.4781
 20
-11.0921
 11
41.5
 21
-11.3
  0
LINE
  8
0
 10
41.5
 20
-11.3
 11
41.4781
 21
-11.5079
  0
LINE
  8
0
 10
41.4781
 20
-11.5079
 11
41.4135
 21
-11.7067
  0
LINE
  8
0
 10
41.4135
 20
-11.7067
 11
41.309
 21
-11.8878
  0
LINE
  8
0
 10
41.309
 20
-11.8878
 11
41.1691
 21
-12.0431
  0
LINE
  8
0
 10
41.1691
 20
-12.0431
 11
41
 21
-12.166
  0
LINE
  8
0
 10
41
 20
-12.166
 11
40.809
 21
-12.2511
  0
LINE
  8
0
 10
40.809
 20
-12.2511
 11
40.6045
 21
-12.2945
  0
LINE
  8
0
 10
40.6045
 20
-12.2945
 11
40.3955
 21
-12.2945
  0
ENDSEC
  0
SECTION
  2
OBJECTS
  0
DICTIONARY
  0
ENDSEC
  0
EOF
