  0
SECTION
  2
BLOCKS
  0
ENDSEC
  0
SECTION
  2
ENTITIES
  0
LINE
  8
0
 10
30.9134
 20
0.3806
 11
32.5355
 21
1.46446
  0
LINE
  8
0
 10
32.5355
 20
1.46446
 11
33.6194
 21
3.08658
  0
LINE
  8
0
 10
33.6194
 20
3.08658
 11
34
 21
5
  0
LINE
  8
0
 10
34
 20
5
 11
34
 21
22.5
  0
LINE
  8
0
 10
34
 20
22.5
 11
22
 21
22.5
  0
LINE
  8
0
 10
22
 20
22.5
 11
22
 21
44.5
  0
LINE
  8
0
 10
22
 20
44.5
 11
34
 21
44.5
  0
LINE
  8
0
 10
34
 20
44.5
 11
34
 21
56
  0
LINE
  8
0
 10
34
 20
56
 11
33.257
 21
63.069
  0
LINE
  8
0
 10
33.257
 20
63.069
 11
31.0605
 21
69.829
  0
LINE
  8
0
 10
31.0605
 20
69.829
 11
27.5066
 21
75.9847
  0
LINE
  8
0
 10
27.5066
 20
75.9847
 11
22.7504
 21
81.2669
  0
LINE
  8
0
 10
22.7504
 20
81.2669
 11
17
 21
85.4449
  0
LINE
  8
0
 10
17
 20
85.4449
 11
10.5066
 21
88.3359
  0
LINE
  8
0
 10
10.5066
 20
88.3359
 11
3.55396
 21
89.8137
  0
LINE
  8
0
 10
3.55396
 20
89.8137
 11
-3.55396
 21
89.8137
  0
LINE
  8
0
 10
-3.55396
 20
89.8137
 11
-10.5066
 21
88.3359
  0
LINE
  8
0
 10
-10.5066
 20
88.3359
 11
-17
 21
85.4449
  0
LINE
  8
0
 10
-17
 20
85.4449
 11
-22.7504
 21
81.2669
  0
LINE
  8
0
 10
-22.7504
 20
81.2669
 11
-27.5066
 21
75.9847
  0
LINE
  8
0
 10
-27.5066
 20
75.9847
 11
-31.0605
 21
69.829
  0
LINE
  8
0
 10
-31.0605
 20
69.829
 11
-33.257
 21
63.069
  0
LINE
  8
0
 10
-33.257
 20
63.069
 11
-34
 21
56
  0
LINE
  8
0
 10
-34
 20
56
 11
-34
 21
44.5
  0
LINE
  8
0
 10
-34
 20
44.5
 11
-22
 21
44.5
  0
LINE
  8
0
 10
-22
 20
44.5
 11
-22
 21
22.5
  0
LINE
  8
0
 10
-22
 20
22.5
 11
-34
 21
22.5
  0
LINE
  8
0
 10
-34
 20
22.5
 11
-34
 21
5
  0
LINE
  8
0
 10
-34
 20
5
 11
-33.6194
 21
3.08658
  0
LINE
  8
0
 10
-33.6194
 20
3.08658
 11
-32.5355
 21
1.46446
  0
LINE
  8
0
 10
-32.5355
 20
1.46446
 11
-30.9134
 21
0.3806
  0
LINE
  8
0
 10
-30.9134
 20
0.3806
 11
-29
 21
0
  0
LINE
  8
0
 10
-29
 20
0
 11
29
 21
0
  0
LINE
  8
0
 10
29
 20
0
 11
30.9134
 21
0.3806
  0
LINE
  8
0
 10
-6.58362
 20
53.7044
 11
-6.74721
 21
53.7392
  0
LINE
  8
0
 10
-6.74721
 20
53.7392
 11
-6.89999
 21
53.8072
  0
LINE
  8
0
 10
-6.89999
 20
53.8072
 11
-7.03529
 21
53.9055
  0
LINE
  8
0
 10
-7.03529
 20
53.9055
 11
-7.1472
 21
54.0298
  0
LINE
  8
0
 10
-7.1472
 20
54.0298
 11
-7.23083
 21
54.1746
  0
LINE
  8
0
 10
-7.23083
 20
54.1746
 11
-7.28252
 21
54.3337
  0
LINE
  8
0
 10
-7.28252
 20
54.3337
 11
-7.29999
 21
54.5
  0
LINE
  8
0
 10
-7.29999
 20
54.5
 11
-7.28252
 21
54.6663
  0
LINE
  8
0
 10
-7.28252
 20
54.6663
 11
-7.23083
 21
54.8254
  0
LINE
  8
0
 10
-7.23083
 20
54.8254
 11
-7.1472
 21
54.9702
  0
LINE
  8
0
 10
-7.1472
 20
54.9702
 11
-7.03529
 21
55.0945
  0
LINE
  8
0
 10
-7.03529
 20
55.0945
 11
-6.89999
 21
55.1928
  0
LINE
  8
0
 10
-6.89999
 20
55.1928
 11
-6.74721
 21
55.2608
  0
LINE
  8
0
 10
-6.74721
 20
55.2608
 11
-6.58362
 21
55.2956
  0
LINE
  8
0
 10
-6.58362
 20
55.2956
 11
-6.41637
 21
55.2956
  0
LINE
  8
0
 10
-6.41637
 20
55.2956
 11
-6.25278
 21
55.2608
  0
LINE
  8
0
 10
-6.25278
 20
55.2608
 11
-6.09999
 21
55.1928
  0
LINE
  8
0
 10
-6.09999
 20
55.1928
 11
-5.96469
 21
55.0945
  0
LINE
  8
0
 10
-5.96469
 20
55.0945
 11
-5.85278
 21
54.9702
  0
LINE
  8
0
 10
-5.85278
 20
54.9702
 11
-5.76915
 21
54.8254
  0
LINE
  8
0
 10
-5.76915
 20
54.8254
 11
-5.71747
 21
54.6663
  0
LINE
  8
0
 10
-5.71747
 20
54.6663
 11
-5.7
 21
54.5
  0
LINE
  8
0
 10
-5.7
 20
54.5
 11
-5.71747
 21
54.3337
  0
LINE
  8
0
 10
-5.71747
 20
54.3337
 11
-5.76915
 21
54.1746
  0
LINE
  8
0
 10
-5.76915
 20
54.1746
 11
-5.85278
 21
54.0298
  0
LINE
  8
0
 10
-5.85278
 20
54.0298
 11
-5.96469
 21
53.9055
  0
LINE
  8
0
 10
-5.96469
 20
53.9055
 11
-6.09999
 21
53.8072
  0
LINE
  8
0
 10
-6.09999
 20
53.8072
 11
-6.25278
 21
53.7392
  0
LINE
  8
0
 10
-6.25278
 20
53.7392
 11
-6.41637
 21
53.7044
  0
LINE
  8
0
 10
-6.41637
 20
53.7044
 11
-6.58362
 21
53.7044
  0
LINE
  8
0
 10
16.4164
 20
53.7044
 11
16.2528
 21
53.7392
  0
LINE
  8
0
 10
16.2528
 20
53.7392
 11
16.1
 21
53.8072
  0
LINE
  8
0
 10
16.1
 20
53.8072
 11
15.9647
 21
53.9055
  0
LINE
  8
0
 10
15.9647
 20
53.9055
 11
15.8528
 21
54.0298
  0
LINE
  8
0
 10
15.8528
 20
54.0298
 11
15.7691
 21
54.1746
  0
LINE
  8
0
 10
15.7691
 20
54.1746
 11
15.7175
 21
54.3337
  0
LINE
  8
0
 10
15.7175
 20
54.3337
 11
15.7
 21
54.5
  0
LINE
  8
0
 10
15.7
 20
54.5
 11
15.7175
 21
54.6663
  0
LINE
  8
0
 10
15.7175
 20
54.6663
 11
15.7691
 21
54.8254
  0
LINE
  8
0
 10
15.7691
 20
54.8254
 11
15.8528
 21
54.9702
  0
LINE
  8
0
 10
15.8528
 20
54.9702
 11
15.9647
 21
55.0945
  0
LINE
  8
0
 10
15.9647
 20
55.0945
 11
16.1
 21
55.1928
  0
LINE
  8
0
 10
16.1
 20
55.1928
 11
16.2528
 21
55.2608
  0
LINE
  8
0
 10
16.2528
 20
55.2608
 11
16.4164
 21
55.2956
  0
LINE
  8
0
 10
16.4164
 20
55.2956
 11
16.5836
 21
55.2956
  0
LINE
  8
0
 10
16.5836
 20
55.2956
 11
16.7472
 21
55.2608
  0
LINE
  8
0
 10
16.7472
 20
55.2608
 11
16.9
 21
55.1928
  0
LINE
  8
0
 10
16.9
 20
55.1928
 11
17.0353
 21
55.0945
  0
LINE
  8
0
 10
17.0353
 20
55.0945
 11
17.1472
 21
54.9702
  0
LINE
  8
0
 10
17.1472
 20
54.9702
 11
17.2308
 21
54.8254
  0
LINE
  8
0
 10
17.2308
 20
54.8254
 11
17.2825
 21
54.6663
  0
LINE
  8
0
 10
17.2825
 20
54.6663
 11
17.3
 21
54.5
  0
LINE
  8
0
 10
17.3
 20
54.5
 11
17.2825
 21
54.3337
  0
LINE
  8
0
 10
17.2825
 20
54.3337
 11
17.2308
 21
54.1746
  0
LINE
  8
0
 10
17.2308
 20
54.1746
 11
17.1472
 21
54.0298
  0
LINE
  8
0
 10
17.1472
 20
54.0298
 11
17.0353
 21
53.9055
  0
LINE
  8
0
 10
17.0353
 20
53.9055
 11
16.9
 21
53.8072
  0
LINE
  8
0
 10
16.9
 20
53.8072
 11
16.7472
 21
53.7392
  0
LINE
  8
0
 10
16.7472
 20
53.7392
 11
16.5836
 21
53.7044
  0
LINE
  8
0
 10
16.5836
 20
53.7044
 11
16.4164
 21
53.7044
  0
LINE
  8
0
 10
6.41637
 20
53.7044
 11
6.25278
 21
53.7392
  0
LINE
  8
0
 10
6.25278
 20
53.7392
 11
6.09999
 21
53.8072
  0
LINE
  8
0
 10
6.09999
 20
53.8072
 11
5.96469
 21
53.9055
  0
LINE
  8
0
 10
5.96469
 20
53.9055
 11
5.85278
 21
54.0298
  0
LINE
  8
0
 10
5.85278
 20
54.0298
 11
5.76915
 21
54.1746
  0
LINE
  8
0
 10
5.76915
 20
54.1746
 11
5.71747
 21
54.3337
  0
LINE
  8
0
 10
5.71747
 20
54.3337
 11
5.7
 21
54.5
  0
LINE
  8
0
 10
5.7
 20
54.5
 11
5.71747
 21
54.6663
  0
LINE
  8
0
 10
5.71747
 20
54.6663
 11
5.76915
 21
54.8254
  0
LINE
  8
0
 10
5.76915
 20
54.8254
 11
5.85278
 21
54.9702
  0
LINE
  8
0
 10
5.85278
 20
54.9702
 11
5.96469
 21
55.0945
  0
LINE
  8
0
 10
5.96469
 20
55.0945
 11
6.09999
 21
55.1928
  0
LINE
  8
0
 10
6.09999
 20
55.1928
 11
6.25278
 21
55.2608
  0
LINE
  8
0
 10
6.25278
 20
55.2608
 11
6.41637
 21
55.2956
  0
LINE
  8
0
 10
6.41637
 20
55.2956
 11
6.58362
 21
55.2956
  0
LINE
  8
0
 10
6.58362
 20
55.2956
 11
6.74721
 21
55.2608
  0
LINE
  8
0
 10
6.74721
 20
55.2608
 11
6.89999
 21
55.1928
  0
LINE
  8
0
 10
6.89999
 20
55.1928
 11
7.03529
 21
55.0945
  0
LINE
  8
0
 10
7.03529
 20
55.0945
 11
7.1472
 21
54.9702
  0
LINE
  8
0
 10
7.1472
 20
54.9702
 11
7.23083
 21
54.8254
  0
LINE
  8
0
 10
7.23083
 20
54.8254
 11
7.28252
 21
54.6663
  0
LINE
  8
0
 10
7.28252
 20
54.6663
 11
7.29999
 21
54.5
  0
LINE
  8
0
 10
7.29999
 20
54.5
 11
7.28252
 21
54.3337
  0
LINE
  8
0
 10
7.28252
 20
54.3337
 11
7.23083
 21
54.1746
  0
LINE
  8
0
 10
7.23083
 20
54.1746
 11
7.1472
 21
54.0298
  0
LINE
  8
0
 10
7.1472
 20
54.0298
 11
7.03529
 21
53.9055
  0
LINE
  8
0
 10
7.03529
 20
53.9055
 11
6.89999
 21
53.8072
  0
LINE
  8
0
 10
6.89999
 20
53.8072
 11
6.74721
 21
53.7392
  0
LINE
  8
0
 10
6.74721
 20
53.7392
 11
6.58362
 21
53.7044
  0
LINE
  8
0
 10
6.58362
 20
53.7044
 11
6.41637
 21
53.7044
  0
LINE
  8
0
 10
-16.5836
 20
53.7044
 11
-16.7472
 21
53.7392
  0
LINE
  8
0
 10
-16.7472
 20
53.7392
 11
-16.9
 21
53.8072
  0
LINE
  8
0
 10
-16.9
 20
53.8072
 11
-17.0353
 21
53.9055
  0
LINE
  8
0
 10
-17.0353
 20
53.9055
 11
-17.1472
 21
54.0298
  0
LINE
  8
0
 10
-17.1472
 20
54.0298
 11
-17.2308
 21
54.1746
  0
LINE
  8
0
 10
-17.2308
 20
54.1746
 11
-17.2825
 21
54.3337
  0
LINE
  8
0
 10
-17.2825
 20
54.3337
 11
-17.3
 21
54.5
  0
LINE
  8
0
 10
-17.3
 20
54.5
 11
-17.2825
 21
54.6663
  0
LINE
  8
0
 10
-17.2825
 20
54.6663
 11
-17.2308
 21
54.8254
  0
LINE
  8
0
 10
-17.2308
 20
54.8254
 11
-17.1472
 21
54.9702
  0
LINE
  8
0
 10
-17.1472
 20
54.9702
 11
-17.0353
 21
55.0945
  0
LINE
  8
0
 10
-17.0353
 20
55.0945
 11
-16.9
 21
55.1928
  0
LINE
  8
0
 10
-16.9
 20
55.1928
 11
-16.7472
 21
55.2608
  0
LINE
  8
0
 10
-16.7472
 20
55.2608
 11
-16.5836
 21
55.2956
  0
LINE
  8
0
 10
-16.5836
 20
55.2956
 11
-16.4164
 21
55.2956
  0
LINE
  8
0
 10
-16.4164
 20
55.2956
 11
-16.2528
 21
55.2608
  0
LINE
  8
0
 10
-16.2528
 20
55.2608
 11
-16.1
 21
55.1928
  0
LINE
  8
0
 10
-16.1
 20
55.1928
 11
-15.9647
 21
55.0945
  0
LINE
  8
0
 10
-15.9647
 20
55.0945
 11
-15.8528
 21
54.9702
  0
LINE
  8
0
 10
-15.8528
 20
54.9702
 11
-15.7691
 21
54.8254
  0
LINE
  8
0
 10
-15.7691
 20
54.8254
 11
-15.7175
 21
54.6663
  0
LINE
  8
0
 10
-15.7175
 20
54.6663
 11
-15.7
 21
54.5
  0
LINE
  8
0
 10
-15.7
 20
54.5
 11
-15.7175
 21
54.3337
  0
LINE
  8
0
 10
-15.7175
 20
54.3337
 11
-15.7691
 21
54.1746
  0
LINE
  8
0
 10
-15.7691
 20
54.1746
 11
-15.8528
 21
54.0298
  0
LINE
  8
0
 10
-15.8528
 20
54.0298
 11
-15.9647
 21
53.9055
  0
LINE
  8
0
 10
-15.9647
 20
53.9055
 11
-16.1
 21
53.8072
  0
LINE
  8
0
 10
-16.1
 20
53.8072
 11
-16.2528
 21
53.7392
  0
LINE
  8
0
 10
-16.2528
 20
53.7392
 11
-16.4164
 21
53.7044
  0
LINE
  8
0
 10
-16.4164
 20
53.7044
 11
-16.5836
 21
53.7044
  0
LINE
  8
0
 10
-6.58362
 20
41.7044
 11
-6.74721
 21
41.7392
  0
LINE
  8
0
 10
-6.74721
 20
41.7392
 11
-6.89999
 21
41.8072
  0
LINE
  8
0
 10
-6.89999
 20
41.8072
 11
-7.03529
 21
41.9055
  0
LINE
  8
0
 10
-7.03529
 20
41.9055
 11
-7.1472
 21
42.0298
  0
LINE
  8
0
 10
-7.1472
 20
42.0298
 11
-7.23083
 21
42.1746
  0
LINE
  8
0
 10
-7.23083
 20
42.1746
 11
-7.28252
 21
42.3337
  0
LINE
  8
0
 10
-7.28252
 20
42.3337
 11
-7.29999
 21
42.5
  0
LINE
  8
0
 10
-7.29999
 20
42.5
 11
-7.28252
 21
42.6663
  0
LINE
  8
0
 10
-7.28252
 20
42.6663
 11
-7.23083
 21
42.8254
  0
LINE
  8
0
 10
-7.23083
 20
42.8254
 11
-7.1472
 21
42.9702
  0
LINE
  8
0
 10
-7.1472
 20
42.9702
 11
-7.03529
 21
43.0945
  0
LINE
  8
0
 10
-7.03529
 20
43.0945
 11
-6.89999
 21
43.1928
  0
LINE
  8
0
 10
-6.89999
 20
43.1928
 11
-6.74721
 21
43.2608
  0
LINE
  8
0
 10
-6.74721
 20
43.2608
 11
-6.58362
 21
43.2956
  0
LINE
  8
0
 10
-6.58362
 20
43.2956
 11
-6.41637
 21
43.2956
  0
LINE
  8
0
 10
-6.41637
 20
43.2956
 11
-6.25278
 21
43.2608
  0
LINE
  8
0
 10
-6.25278
 20
43.2608
 11
-6.09999
 21
43.1928
  0
LINE
  8
0
 10
-6.09999
 20
43.1928
 11
-5.96469
 21
43.0945
  0
LINE
  8
0
 10
-5.96469
 20
43.0945
 11
-5.85278
 21
42.9702
  0
LINE
  8
0
 10
-5.85278
 20
42.9702
 11
-5.76915
 21
42.8254
  0
LINE
  8
0
 10
-5.76915
 20
42.8254
 11
-5.71747
 21
42.6663
  0
LINE
  8
0
 10
-5.71747
 20
42.6663
 11
-5.7
 21
42.5
  0
LINE
  8
0
 10
-5.7
 20
42.5
 11
-5.71747
 21
42.3337
  0
LINE
  8
0
 10
-5.71747
 20
42.3337
 11
-5.76915
 21
42.1746
  0
LINE
  8
0
 10
-5.76915
 20
42.1746
 11
-5.85278
 21
42.0298
  0
LINE
  8
0
 10
-5.85278
 20
42.0298
 11
-5.96469
 21
41.9055
  0
LINE
  8
0
 10
-5.96469
 20
41.9055
 11
-6.09999
 21
41.8072
  0
LINE
  8
0
 10
-6.09999
 20
41.8072
 11
-6.25278
 21
41.7392
  0
LINE
  8
0
 10
-6.25278
 20
41.7392
 11
-6.41637
 21
41.7044
  0
LINE
  8
0
 10
-6.41637
 20
41.7044
 11
-6.58362
 21
41.7044
  0
LINE
  8
0
 10
16.4164
 20
41.7044
 11
16.2528
 21
41.7392
  0
LINE
  8
0
 10
16.2528
 20
41.7392
 11
16.1
 21
41.8072
  0
LINE
  8
0
 10
16.1
 20
41.8072
 11
15.9647
 21
41.9055
  0
LINE
  8
0
 10
15.9647
 20
41.9055
 11
15.8528
 21
42.0298
  0
LINE
  8
0
 10
15.8528
 20
42.0298
 11
15.7691
 21
42.1746
  0
LINE
  8
0
 10
15.7691
 20
42.1746
 11
15.7175
 21
42.3337
  0
LINE
  8
0
 10
15.7175
 20
42.3337
 11
15.7
 21
42.5
  0
LINE
  8
0
 10
15.7
 20
42.5
 11
15.7175
 21
42.6663
  0
LINE
  8
0
 10
15.7175
 20
42.6663
 11
15.7691
 21
42.8254
  0
LINE
  8
0
 10
15.7691
 20
42.8254
 11
15.8528
 21
42.9702
  0
LINE
  8
0
 10
15.8528
 20
42.9702
 11
15.9647
 21
43.0945
  0
LINE
  8
0
 10
15.9647
 20
43.0945
 11
16.1
 21
43.1928
  0
LINE
  8
0
 10
16.1
 20
43.1928
 11
16.2528
 21
43.2608
  0
LINE
  8
0
 10
16.2528
 20
43.2608
 11
16.4164
 21
43.2956
  0
LINE
  8
0
 10
16.4164
 20
43.2956
 11
16.5836
 21
43.2956
  0
LINE
  8
0
 10
16.5836
 20
43.2956
 11
16.7472
 21
43.2608
  0
LINE
  8
0
 10
16.7472
 20
43.2608
 11
16.9
 21
43.1928
  0
LINE
  8
0
 10
16.9
 20
43.1928
 11
17.0353
 21
43.0945
  0
LINE
  8
0
 10
17.0353
 20
43.0945
 11
17.1472
 21
42.9702
  0
LINE
  8
0
 10
17.1472
 20
42.9702
 11
17.2308
 21
42.8254
  0
LINE
  8
0
 10
17.2308
 20
42.8254
 11
17.2825
 21
42.6663
  0
LINE
  8
0
 10
17.2825
 20
42.6663
 11
17.3
 21
42.5
  0
LINE
  8
0
 10
17.3
 20
42.5
 11
17.2825
 21
42.3337
  0
LINE
  8
0
 10
17.2825
 20
42.3337
 11
17.2308
 21
42.1746
  0
LINE
  8
0
 10
17.2308
 20
42.1746
 11
17.1472
 21
42.0298
  0
LINE
  8
0
 10
17.1472
 20
42.0298
 11
17.0353
 21
41.9055
  0
LINE
  8
0
 10
17.0353
 20
41.9055
 11
16.9
 21
41.8072
  0
LINE
  8
0
 10
16.9
 20
41.8072
 11
16.7472
 21
41.7392
  0
LINE
  8
0
 10
16.7472
 20
41.7392
 11
16.5836
 21
41.7044
  0
LINE
  8
0
 10
16.5836
 20
41.7044
 11
16.4164
 21
41.7044
  0
LINE
  8
0
 10
-16.5836
 20
41.7044
 11
-16.7472
 21
41.7392
  0
LINE
  8
0
 10
-16.7472
 20
41.7392
 11
-16.9
 21
41.8072
  0
LINE
  8
0
 10
-16.9
 20
41.8072
 11
-17.0353
 21
41.9055
  0
LINE
  8
0
 10
-17.0353
 20
41.9055
 11
-17.1472
 21
42.0298
  0
LINE
  8
0
 10
-17.1472
 20
42.0298
 11
-17.2308
 21
42.1746
  0
LINE
  8
0
 10
-17.2308
 20
42.1746
 11
-17.2825
 21
42.3337
  0
LINE
  8
0
 10
-17.2825
 20
42.3337
 11
-17.3
 21
42.5
  0
LINE
  8
0
 10
-17.3
 20
42.5
 11
-17.2825
 21
42.6663
  0
LINE
  8
0
 10
-17.2825
 20
42.6663
 11
-17.2308
 21
42.8254
  0
LINE
  8
0
 10
-17.2308
 20
42.8254
 11
-17.1472
 21
42.9702
  0
LINE
  8
0
 10
-17.1472
 20
42.9702
 11
-17.0353
 21
43.0945
  0
LINE
  8
0
 10
-17.0353
 20
43.0945
 11
-16.9
 21
43.1928
  0
LINE
  8
0
 10
-16.9
 20
43.1928
 11
-16.7472
 21
43.2608
  0
LINE
  8
0
 10
-16.7472
 20
43.2608
 11
-16.5836
 21
43.2956
  0
LINE
  8
0
 10
-16.5836
 20
43.2956
 11
-16.4164
 21
43.2956
  0
LINE
  8
0
 10
-16.4164
 20
43.2956
 11
-16.2528
 21
43.2608
  0
LINE
  8
0
 10
-16.2528
 20
43.2608
 11
-16.1
 21
43.1928
  0
LINE
  8
0
 10
-16.1
 20
43.1928
 11
-15.9647
 21
43.0945
  0
LINE
  8
0
 10
-15.9647
 20
43.0945
 11
-15.8528
 21
42.9702
  0
LINE
  8
0
 10
-15.8528
 20
42.9702
 11
-15.7691
 21
42.8254
  0
LINE
  8
0
 10
-15.7691
 20
42.8254
 11
-15.7175
 21
42.6663
  0
LINE
  8
0
 10
-15.7175
 20
42.6663
 11
-15.7
 21
42.5
  0
LINE
  8
0
 10
-15.7
 20
42.5
 11
-15.7175
 21
42.3337
  0
LINE
  8
0
 10
-15.7175
 20
42.3337
 11
-15.7691
 21
42.1746
  0
LINE
  8
0
 10
-15.7691
 20
42.1746
 11
-15.8528
 21
42.0298
  0
LINE
  8
0
 10
-15.8528
 20
42.0298
 11
-15.9647
 21
41.9055
  0
LINE
  8
0
 10
-15.9647
 20
41.9055
 11
-16.1
 21
41.8072
  0
LINE
  8
0
 10
-16.1
 20
41.8072
 11
-16.2528
 21
41.7392
  0
LINE
  8
0
 10
-16.2528
 20
41.7392
 11
-16.4164
 21
41.7044
  0
LINE
  8
0
 10
-16.4164
 20
41.7044
 11
-16.5836
 21
41.7044
  0
LINE
  8
0
 10
6.41637
 20
41.7044
 11
6.25278
 21
41.7392
  0
LINE
  8
0
 10
6.25278
 20
41.7392
 11
6.09999
 21
41.8072
  0
LINE
  8
0
 10
6.09999
 20
41.8072
 11
5.96469
 21
41.9055
  0
LINE
  8
0
 10
5.96469
 20
41.9055
 11
5.85278
 21
42.0298
  0
LINE
  8
0
 10
5.85278
 20
42.0298
 11
5.76915
 21
42.1746
  0
LINE
  8
0
 10
5.76915
 20
42.1746
 11
5.71747
 21
42.3337
  0
LINE
  8
0
 10
5.71747
 20
42.3337
 11
5.7
 21
42.5
  0
LINE
  8
0
 10
5.7
 20
42.5
 11
5.71747
 21
42.6663
  0
LINE
  8
0
 10
5.71747
 20
42.6663
 11
5.76915
 21
42.8254
  0
LINE
  8
0
 10
5.76915
 20
42.8254
 11
5.85278
 21
42.9702
  0
LINE
  8
0
 10
5.85278
 20
42.9702
 11
5.96469
 21
43.0945
  0
LINE
  8
0
 10
5.96469
 20
43.0945
 11
6.09999
 21
43.1928
  0
LINE
  8
0
 10
6.09999
 20
43.1928
 11
6.25278
 21
43.2608
  0
LINE
  8
0
 10
6.25278
 20
43.2608
 11
6.41637
 21
43.2956
  0
LINE
  8
0
 10
6.41637
 20
43.2956
 11
6.58362
 21
43.2956
  0
LINE
  8
0
 10
6.58362
 20
43.2956
 11
6.74721
 21
43.2608
  0
LINE
  8
0
 10
6.74721
 20
43.2608
 11
6.89999
 21
43.1928
  0
LINE
  8
0
 10
6.89999
 20
43.1928
 11
7.03529
 21
43.0945
  0
LINE
  8
0
 10
7.03529
 20
43.0945
 11
7.1472
 21
42.9702
  0
LINE
  8
0
 10
7.1472
 20
42.9702
 11
7.23083
 21
42.8254
  0
LINE
  8
0
 10
7.23083
 20
42.8254
 11
7.28252
 21
42.6663
  0
LINE
  8
0
 10
7.28252
 20
42.6663
 11
7.29999
 21
42.5
  0
LINE
  8
0
 10
7.29999
 20
42.5
 11
7.28252
 21
42.3337
  0
LINE
  8
0
 10
7.28252
 20
42.3337
 11
7.23083
 21
42.1746
  0
LINE
  8
0
 10
7.23083
 20
42.1746
 11
7.1472
 21
42.0298
  0
LINE
  8
0
 10
7.1472
 20
42.0298
 11
7.03529
 21
41.9055
  0
LINE
  8
0
 10
7.03529
 20
41.9055
 11
6.89999
 21
41.8072
  0
LINE
  8
0
 10
6.89999
 20
41.8072
 11
6.74721
 21
41.7392
  0
LINE
  8
0
 10
6.74721
 20
41.7392
 11
6.58362
 21
41.7044
  0
LINE
  8
0
 10
6.58362
 20
41.7044
 11
6.41637
 21
41.7044
  0
ENDSEC
  0
SECTION
  2
OBJECTS
  0
DICTIONARY
  0
ENDSEC
  0
EOF
